<svg viewBox="0 0 1283 285" xmlns="http://www.w3.org/2000/svg"><path d="m492.2 25 .2-7.9c.3-8.9-6.6-16.9-16.7-17.2-9.1 0-16.4 7.1-16.7 16.3l-.2 7.9c-1.4 51.3 9.6 117.6 30.7 157.2l18.7-49.4c-8.4-34.7-17-70.6-16-106.9z" fill="#f6a96c"/><path d="m558 11.4c-1.4-4.2-4.4-7.7-8.4-9.7-8-4.1-18.4-.6-22.4 7.5l-3.5 7c-19.4 38.8-30.6 83.9-32.6 131.3l31.1-7.8c7.1-36.7 14.4-74.6 31.4-108.6l3.5-7.1c2-3.9 2.4-8.4.9-12.6z" fill="#ffbd86"/><path d="m616.9 32.9c-5.6-7-16.5-8.2-23.4-2.7l-6.2 4.9c-21.5 17-42.1 39.3-62.5 67.6l38.3 4.1c13.1-17 28.2-32.2 45-45.6l6.2-4.9c3.5-2.8 5.7-6.7 6.2-11.2.5-4.3-.8-8.7-3.6-12.2z" fill="#ffbd86"/><path d="m642.1 197.7c-1.5 11.5-9.7 23-25.2 35.1-11.4 8.9-17.9 22.5-17.9 35.3v8.5c0 4.7-3.8 8.3-8.3 8.3h-90.2c-4 0-7.5-2.8-8.2-6.8-8.7-44.8-8.5-79.1-8.3-103.3.2-1.5-.5-7.5.5-16.2 1.3-13.4 6.2-33.1 23.9-50.6 15.6-15.8 36.6-24.5 58.8-24.5 9.5 0 26.2 3 40.6 9.9 14.2 6.8 26.2 17.2 26.2 31.9 0 6.7-4.2 12.7-10.5 15-6.3 2.2-13.4.2-17.7-5-9.2-11.2-23-18.4-38.6-18.4-24.9 0-45.4 18-49.3 41.7-.7 2.7-.8 5.5-.8 8.3 0 27.7 22.4 50.1 50.1 50.1 23 0 41.4-15.7 46.8-36.9 1-3.8 3.7-7 7.3-8.5 3.7-1.5 7.8-1.3 11.2.7 1.5.8 2.5 1.5 2.7 1.8 4 4.1 8.4 11.4 6.9 23.6z" fill="#fed2a4"/><path d="m42.7 119.1c-12.4 0-19.7 6-19.8 14.2-.1 9.1 9.6 12.9 18.5 15l10.2 2.6c16.4 3.9 32 12.5 32.1 31.4-.1 19.2-15.2 32.3-41.4 32.3-25.4 0-41.5-12.2-42.3-33.9h19.4c.8 11.5 10.4 17 22.7 17 12.9 0 21.7-6.2 21.8-15.6-.1-8.5-7.8-12.1-19.6-15.1l-12.3-3.1c-18-4.6-29.1-13.6-29.1-29.3-.1-19.3 17.2-32.2 40.1-32.2 23.2 0 38.9 13.1 39.3 31.5h-19c-1.1-9.3-8.9-14.8-20.6-14.8zm51.5 12.1h19.7l14.4 57.5h.7l14.7-57.5h19.4l14.7 57.2h.8l14.2-57.2h19.7l-23.1 81.8h-20.1l-15.3-55.3h-1.1l-15.4 55.3h-20.1zm126.1 41.4c0-25.2 15.3-42.5 38.7-42.5 20.1 0 37.4 12.6 37.4 41.3v5.9h-57c.2 14 8.4 22.2 20.9 22.2 8.3 0 14.7-3.6 17.3-10.5l18 2c-3.4 14.2-16.5 23.5-35.6 23.5-24.6.1-39.7-16.3-39.7-41.9zm57.7-8.2c-.1-11.1-7.6-19.2-18.6-19.2-11.5 0-19.2 8.8-19.8 19.2zm31.2 8.2c0-25.2 15.3-42.5 38.7-42.5 20.1 0 37.4 12.6 37.4 41.3v5.9h-57c.2 14 8.4 22.2 20.9 22.2 8.3 0 14.7-3.6 17.3-10.5l18 2c-3.4 14.2-16.5 23.5-35.6 23.5-24.6.1-39.7-16.3-39.7-41.9zm57.7-8.2c-.1-11.1-7.6-19.2-18.6-19.2-11.5 0-19.2 8.8-19.8 19.2zm75.6-18.3h-16.1v42.3c0 7.8 3.9 9.5 8.7 9.5 2.4 0 4.6-.5 5.6-.7l3.2 15.1c-2.1.7-5.9 1.8-11.3 1.9-14.5.4-25.7-7.1-25.6-22.5v-45.5h-11.6v-14.9h11.6v-19.6h19.3v19.6h16.1v14.8z" fill="#f6a96c"/><path d="m657.9 172.4c0-25.4 15.2-42.3 39.2-42.3s39.2 16.9 39.2 42.3c0 25.3-15.2 42.2-39.2 42.2s-39.2-16.9-39.2-42.2zm58.9-.1c0-15-6.5-27-19.5-27-13.3 0-19.8 12-19.8 27s6.5 26.8 19.8 26.8c13 0 19.5-11.8 19.5-26.8zm55.1 40.7h-19.3v-81.8h18.4v13.9h1c3.7-9.1 12.1-15 24.4-15 16.9 0 28.1 11.2 28 30.8v52.1h-19.3v-49.1c0-10.9-6-17.5-15.9-17.5-10.2 0-17.3 6.8-17.3 18.6zm113.6-66.9h-17v66.9h-19.3v-66.9h-12.1v-14.9h12.1v-7.7c0-16.5 11.3-24.7 25.6-24.7 6.7 0 12.1 1.4 14.6 2.2l-3.9 14.9c-1.6-.5-4.2-1.2-7.2-1.2-7.2 0-9.9 3.6-9.9 10v6.4h17v15zm13.7-37c0-5.8 5-10.5 11.2-10.5 6.1 0 11.1 4.7 11.1 10.5s-5 10.4-11.1 10.4c-6.2.1-11.2-4.6-11.2-10.4zm1.4 22.1h19.3v81.8h-19.3zm39.1 0h18.7v13.6h.9c3-9.5 10.8-14.8 20.2-14.8 2.1 0 5.2.2 6.9.5v17.7c-1.7-.5-5.7-1.1-8.9-1.1-10.6 0-18.4 7.4-18.4 17.7v48.2h-19.3v-81.8zm59.5 0h18.4v13.9h1c3.4-9.3 11.6-15 22.6-15s19 5.7 22.1 15h.9c3.6-9.1 12.7-15 24.6-15 15 0 25.6 9.7 25.6 28v54.9h-19.4v-52c0-10.1-6.2-14.7-14-14.7-9.3 0-14.8 6.4-14.8 15.6v51h-18.9v-52.7c0-8.4-5.6-13.9-13.7-13.9-8.3 0-15 6.8-15 16.9v49.8h-19.3v-81.8z" fill="#fed2a4"/><path d="m1134.1 202.4c-.1-6.4 5.2-11.6 11.7-11.6 6.3 0 11.7 5.2 11.7 11.6-.1 6.5-5.4 11.7-11.7 11.7-6.5.1-11.8-5.2-11.7-11.7zm62.7-71.2v86.3c0 17.7-10.4 26.3-28.7 26-1.1-.1-2.2 0-3.7-.1v-15.7c1.1.1 1.8.1 2.8.1 7.4 0 10.3-3.7 10.3-10.5v-86.1zm-20.9-22.1c0-5.8 5-10.5 11.2-10.5 6.1 0 11.1 4.7 11.1 10.5s-5 10.4-11.1 10.4c-6.2.1-11.2-4.6-11.2-10.4zm87.8 45.6c-1.5-5.4-6.2-10.2-15.1-10.2-8 0-14.2 3.8-14.1 9.4-.1 4.7 3.2 7.6 11.6 9.5l14 3c15.4 3.4 23 10.5 23 22.2-.1 15.5-14.5 26.1-34.9 26.1-20.1 0-32.7-8.9-35.1-23.9l18.8-1.8c1.7 7.4 7.4 11.2 16.2 11.2 9.2 0 15.2-4.2 15.2-9.8 0-4.6-3.5-7.7-11-9.3l-14-2.9c-15.7-3.2-23.1-11.1-23-23.1-.1-15.1 13.4-24.8 33.1-24.8 19.2 0 30.3 8.8 32.9 22.7z" fill="#f6a96c"/></svg>